<svg xmlns="http://www.w3.org/2000/svg" version="1.1" xmlns:xlink="http://www.w3.org/1999/xlink" viewBox="0 0 200 200"><rect width="200" height="200" fill="url('#gradient')"></rect><defs><linearGradient id="gradient" gradientTransform="rotate(186 0.5 0.5)"><stop offset="0%" stop-color="#5f645b"></stop><stop offset="100%" stop-color="#4e3721"></stop></linearGradient></defs><g><g fill="#19dff1" transform="matrix(5.007334963325183,0,0,5.007334963325183,6.6357770757453665,135.606409936779)" stroke="#b2f4ec" stroke-width="0"><path d="M9.17-4.81L12.58-4.81Q12.51-3.33 11.78-2.19Q11.04-1.05 9.72-0.43Q8.40 0.20 6.70 0.20L6.70 0.20Q3.90 0.20 2.29-1.63Q0.67-3.46 0.67-6.79L0.67-6.79L0.67-7.49Q0.67-9.58 1.40-11.15Q2.13-12.71 3.50-13.57Q4.86-14.42 6.66-14.42L6.66-14.42Q9.25-14.42 10.82-13.06Q12.39-11.70 12.61-9.31L12.61-9.31L9.19-9.31Q9.15-10.61 8.54-11.17Q7.92-11.74 6.66-11.74L6.66-11.74Q5.38-11.74 4.79-10.78Q4.19-9.82 4.16-7.72L4.16-7.72L4.16-6.72Q4.16-4.44 4.73-3.47Q5.30-2.49 6.70-2.49L6.70-2.49Q7.88-2.49 8.51-3.05Q9.13-3.60 9.17-4.81L9.17-4.81ZM13.64-4.82L13.63-5.38Q13.63-6.96 14.25-8.20Q14.86-9.43 16.02-10.10Q17.17-10.76 18.72-10.76L18.72-10.76Q21.09-10.76 22.46-9.29Q23.83-7.82 23.83-5.29L23.83-5.29L23.83-5.18Q23.83-2.71 22.46-1.25Q21.08 0.20 18.74 0.20L18.74 0.20Q16.48 0.20 15.12-1.16Q13.75-2.51 13.64-4.82L13.64-4.82ZM16.93-5.77L16.92-5.18Q16.92-3.71 17.38-3.03Q17.84-2.34 18.74-2.34L18.74-2.34Q20.50-2.34 20.54-5.05L20.54-5.05L20.54-5.38Q20.54-8.22 18.72-8.22L18.72-8.22Q17.07-8.22 16.93-5.77L16.93-5.77ZM31.04-4.82L28.86-4.82L28.86 0L25.43 0L25.43-14.22L31.10-14.22Q32.73-14.22 33.99-13.62Q35.24-13.02 35.93-11.91Q36.62-10.80 36.62-9.39L36.62-9.39Q36.62-7.31 35.13-6.07Q33.64-4.82 31.04-4.82L31.04-4.82ZM28.86-11.57L28.86-7.47L31.10-7.47Q32.10-7.47 32.62-7.97Q33.14-8.47 33.14-9.38L33.14-9.38Q33.14-10.37 32.61-10.97Q32.07-11.56 31.14-11.57L31.14-11.57L28.86-11.57Z"></path></g></g></svg>